<svg width="1980" height="840" viewBox="0 0 1980 840" fill="none" xmlns="http://www.w3.org/2000/svg">
<g clip-path="url(#clip0_142_143)">
<rect width="1980" height="840" fill="#F5F5F5"/>
<path fill-rule="evenodd" clip-rule="evenodd" d="M-720.162 442.798L-678.096 410.71C-638.554 378.68 -554.421 314.505 -471.968 281.489C-389.515 248.474 -303.693 246.503 -221.662 197.936C-139.631 149.37 -76.9964 -7.83548 8.4142 68.0074C93.8248 143.85 192.261 397.072 275.982 410.71C359.702 424.348 454.408 260.214 536.861 227.199C619.314 194.184 709.361 347.724 793.082 361.362C876.802 375.001 959.245 248.62 1043.39 277.809C1127.53 306.999 1223.92 390.698 1309.33 466.541C1394.74 542.384 1427.2 425.48 1508.81 361.362C1590.42 297.245 1720.73 386.741 1801.07 275.97C1881.41 165.198 1963.85 38.8179 2047.99 68.0072C2132.14 97.1965 2223.03 281.84 2265.95 374.219L2311.4 466.541L2319 746.462L2276.09 747.447C2235.7 748.375 2149.88 750.346 2066.58 752.259C1983.28 754.172 1897.46 756.143 1814.16 758.056C1730.87 759.969 1645.04 761.94 1561.74 763.853C1478.45 765.766 1392.62 767.737 1309.33 769.65C1226.03 771.563 1140.21 773.534 1056.91 775.447C973.61 777.36 887.787 779.331 804.489 781.244C721.191 783.157 635.369 785.128 552.071 787.041C468.773 788.954 382.95 790.925 299.652 792.838C216.354 794.751 130.532 796.722 47.2338 798.635C-36.0643 800.548 -121.887 802.519 -205.185 804.432C-288.483 806.345 -374.305 808.316 -457.603 810.229C-540.901 812.142 -626.724 814.113 -667.111 815.041L-710.022 816.026L-720.162 442.798Z" fill="#F4DDD0"/>
<g filter="url(#filter0_d_142_143)">
<path d="M164.438 742.147C164.438 807.973 108.389 861.335 39.2493 861.335C-29.8903 861.335 -85.939 807.973 -85.939 742.147C-85.939 676.322 -29.8903 622.96 39.2493 622.96C108.389 622.96 164.438 676.322 164.438 742.147Z" fill="#C8CC92"/>
<path d="M414.814 742.147C414.814 807.973 358.765 861.335 289.626 861.335C220.486 861.335 164.438 807.973 164.438 742.147C164.438 676.322 220.486 622.96 289.626 622.96C358.765 622.96 414.814 676.322 414.814 742.147Z" fill="#C8CC92"/>
<path d="M665.191 742.147C665.191 807.973 609.142 861.335 540.002 861.335C470.863 861.335 414.814 807.973 414.814 742.147C414.814 676.322 470.863 622.96 540.002 622.96C609.142 622.96 665.191 676.322 665.191 742.147Z" fill="#C8CC92"/>
<path d="M915.567 742.147C915.567 807.973 859.518 861.335 790.379 861.335C721.239 861.335 665.191 807.973 665.191 742.147C665.191 676.322 721.239 622.96 790.379 622.96C859.518 622.96 915.567 676.322 915.567 742.147Z" fill="#C8CC92"/>
<path d="M1165.94 742.147C1165.94 807.973 1109.89 861.335 1040.76 861.335C971.616 861.335 915.567 807.973 915.567 742.147C915.567 676.322 971.616 622.96 1040.76 622.96C1109.89 622.96 1165.94 676.322 1165.94 742.147Z" fill="#C8CC92"/>
<path d="M1416.32 742.147C1416.32 807.973 1360.27 861.335 1291.13 861.335C1221.99 861.335 1165.94 807.973 1165.94 742.147C1165.94 676.322 1221.99 622.96 1291.13 622.96C1360.27 622.96 1416.32 676.322 1416.32 742.147Z" fill="#C8CC92"/>
<path d="M1666.7 742.147C1666.7 807.973 1610.65 861.335 1541.51 861.335C1472.37 861.335 1416.32 807.973 1416.32 742.147C1416.32 676.322 1472.37 622.96 1541.51 622.96C1610.65 622.96 1666.7 676.322 1666.7 742.147Z" fill="#C8CC92"/>
<path d="M1917.07 742.147C1917.07 807.973 1861.02 861.335 1791.88 861.335C1722.75 861.335 1666.7 807.973 1666.7 742.147C1666.7 676.322 1722.75 622.96 1791.88 622.96C1861.02 622.96 1917.07 676.322 1917.07 742.147Z" fill="#C8CC92"/>
<path d="M2167.45 742.147C2167.45 807.973 2111.4 861.335 2042.26 861.335C1973.12 861.335 1917.07 807.973 1917.07 742.147C1917.07 676.322 1973.12 622.96 2042.26 622.96C2111.4 622.96 2167.45 676.322 2167.45 742.147Z" fill="#C8CC92"/>
<path d="M35.6075 728.904H2167.45V1473.16H35.6075V728.904Z" fill="#C8CC92"/>
</g>
</g>
<defs>
<filter id="filter0_d_142_143" x="-85.939" y="622.96" width="2263.98" height="860.799" filterUnits="userSpaceOnUse" color-interpolation-filters="sRGB">
<feFlood flood-opacity="0" result="BackgroundImageFix"/>
<feColorMatrix in="SourceAlpha" type="matrix" values="0 0 0 0 0 0 0 0 0 0 0 0 0 0 0 0 0 0 127 0" result="hardAlpha"/>
<feOffset dx="5.29722" dy="5.29722"/>
<feGaussianBlur stdDeviation="2.64861"/>
<feComposite in2="hardAlpha" operator="out"/>
<feColorMatrix type="matrix" values="0 0 0 0 0.57913 0 0 0 0 0.591623 0 0 0 0 0.410464 0 0 0 1 0"/>
<feBlend mode="normal" in2="BackgroundImageFix" result="effect1_dropShadow_142_143"/>
<feBlend mode="normal" in="SourceGraphic" in2="effect1_dropShadow_142_143" result="shape"/>
</filter>
<clipPath id="clip0_142_143">
<rect width="1980" height="840" fill="white"/>
</clipPath>
</defs>
</svg>
