<svg width="140" height="150" viewBox="0 0 140 150" fill="none" xmlns="http://www.w3.org/2000/svg">
<g filter="url(#filter0_d_187_15)">
<rect x="40.2397" y="46.7764" width="74.2942" height="74.2942" rx="7.58309" fill="#7F6652" stroke="#472E2A" stroke-width="2"/>
<path d="M71.322 9.74636C74.3553 5.70492 80.4184 5.70493 83.4517 9.74637L119.962 58.3907C123.714 63.3894 120.147 70.5258 113.897 70.5258H40.8766C34.6265 70.5258 31.0599 63.3894 34.8117 58.3907L71.322 9.74636Z" fill="#6B4A44" stroke="#472E2A" stroke-width="2"/>
</g>
<circle cx="2.007" cy="2.007" r="2.007" transform="matrix(-0.866025 -0.5 -0.5 0.866025 75.1094 70.1992)" fill="#D9D9D9"/>
<circle cx="0.668999" cy="0.668999" r="0.668999" transform="matrix(-0.866025 -0.5 -0.5 0.866025 76.0162 69.9287)" fill="#D9D9D9"/>
<path d="M73.1045 68.2688C72.9198 68.5888 73.0294 68.9979 73.3494 69.1826C73.6694 69.3674 74.0785 69.2578 74.2633 68.9378C74.448 68.6178 74.3384 68.2086 74.0184 68.0239C73.6984 67.8392 73.2893 67.9488 73.1045 68.2688Z" fill="#D9D9D9"/>
<circle cx="0.668999" cy="0.668999" r="0.668999" transform="matrix(-0.866025 -0.5 -0.5 0.866025 72.5212 67.9541)" fill="#D9D9D9"/>
<circle cx="8.58853" cy="70.2805" r="2.007" transform="rotate(-30 8.58853 70.2805)" fill="#D9D9D9"/>
<circle cx="5.85393" cy="69.5203" r="0.668999" transform="rotate(-30 5.85393 69.5203)" fill="#D9D9D9"/>
<path d="M7.85175 67.6159C8.03649 67.9359 7.92686 68.3451 7.60688 68.5298C7.2869 68.7146 6.87775 68.6049 6.69301 68.2849C6.50827 67.965 6.6179 67.5558 6.93788 67.3711C7.25786 67.1863 7.66701 67.296 7.85175 67.6159Z" fill="#D9D9D9"/>
<circle cx="9.34893" cy="67.5461" r="0.668999" transform="rotate(-30 9.34893 67.5461)" fill="#D9D9D9"/>
<g filter="url(#filter1_d_187_15)">
<path d="M64.69 100.292C64.3146 101.038 64.2184 102.005 64.4535 102.806C81.2872 160.171 63.3085 144.577 47.8691 126.146C46.403 124.395 43.6343 124.604 42.4361 126.548C18.7219 165.011 19.4026 133.433 19.4174 102.392C19.4177 101.817 19.24 101.208 18.953 100.711C-15.2897 41.3206 13.7189 69.075 30.6443 77.0947C33.6629 78.5249 48.1182 78.7225 51.1952 77.4225C67.5381 70.5181 92.9428 44.1786 64.69 100.292Z" fill="#AF8C70"/>
<path d="M64.1064 99.9983C63.6585 100.888 63.5435 102.026 63.8265 102.99C68.032 117.321 70.0478 127.047 70.4832 133.291C70.7014 136.419 70.5178 138.614 70.0526 140.06C69.5943 141.485 68.9019 142.087 68.1208 142.262C67.2724 142.452 66.115 142.192 64.6472 141.41C63.1991 140.638 61.5516 139.414 59.7724 137.851C56.2168 134.727 52.2237 130.327 48.37 125.726C46.6157 123.632 43.3106 123.884 41.8799 126.205C38.9242 130.999 36.3579 134.686 34.1317 137.413C31.899 140.148 30.0368 141.881 28.4966 142.805C26.9641 143.725 25.8498 143.792 25.0023 143.399C24.112 142.987 23.3116 141.979 22.6349 140.291C21.2851 136.923 20.6307 131.372 20.3258 124.641C20.0543 118.649 20.0614 111.803 20.0687 104.871C20.0695 104.046 20.0704 103.219 20.0708 102.392C20.0711 101.692 19.8577 100.972 19.5191 100.384C10.9577 85.5356 6.38268 76.1877 4.57481 70.6354C4.1243 69.2519 3.85188 68.1223 3.72968 67.2143C3.60663 66.3 3.64157 65.6503 3.76943 65.205C3.89157 64.7797 4.09208 64.5549 4.33065 64.4265C4.59079 64.2865 4.98022 64.2167 5.54453 64.2741C6.68721 64.3903 8.26614 64.9959 10.1833 65.9662C12.0818 66.927 14.2392 68.2066 16.5199 69.6065C17.3605 70.1224 18.2181 70.655 19.0847 71.1931C22.8963 73.56 26.8828 76.0354 30.3645 77.6851C31.2318 78.0961 32.8065 78.3833 34.6253 78.5816C36.4782 78.7837 38.6853 78.9027 40.888 78.9358C43.0908 78.9688 45.3012 78.9161 47.1609 78.7723C48.9876 78.631 50.5694 78.3962 51.4495 78.0244C55.068 76.4957 59.1174 74.0311 62.8927 71.7333C63.4381 71.4014 63.9778 71.0729 64.5096 70.7512C66.6289 69.4694 68.6246 68.2945 70.3884 67.4134C72.1697 66.5236 73.6396 65.9731 74.724 65.8764C75.2574 65.8288 75.6413 65.8968 75.9121 66.0372C76.1668 66.1692 76.3824 66.3962 76.532 66.8022C76.8541 67.6761 76.8302 69.2704 76.1651 71.9156C74.8487 77.1515 71.1704 85.9684 64.1064 99.9983Z" stroke="#6B4A44" stroke-width="1.30679"/>
</g>
<ellipse cx="43.4904" cy="96.6884" rx="13.0679" ry="16.3349" fill="#D6BFB1"/>
<g filter="url(#filter2_d_187_15)">
<g filter="url(#filter3_i_187_15)">
<path d="M26.718 59.5809C26.718 51.0646 31.3456 51.0975 40.6542 51.0975H45.7617C55.0704 51.0975 59.698 51.0646 59.698 59.5809L61.6434 71.1904C63.881 80.8018 55.0704 84.9272 45.7617 84.9272H40.6542C31.3456 84.9272 22.1456 80.8955 23.7995 71.1904L26.718 59.5809Z" fill="#AF8C70"/>
<path d="M37.1311 55.106C36.7023 58.7408 33.1071 61.3325 29.1011 60.8947C25.095 60.4569 22.195 57.1554 22.6238 53.5205C23.0526 49.8857 26.6478 47.294 30.6539 47.7318C34.66 48.1696 37.5599 51.4711 37.1311 55.106Z" fill="#AF8C70"/>
<path d="M34.3077 49.6476C34.5265 49.4891 34.8358 49.5223 35.0131 49.7233L40.4697 55.9101C41.1943 56.7315 41.0565 57.9224 40.162 58.57L32.1447 64.374C31.2501 65.0215 29.9376 64.8806 29.2131 64.0591L23.796 57.9171C23.6033 57.6987 23.6415 57.3691 23.8794 57.1969L34.3077 49.6476Z" fill="#AF8C70"/>
<path d="M48.543 55.106C48.9718 58.7408 52.567 61.3325 56.5731 60.8947C60.5791 60.4569 63.4791 57.1554 63.0503 53.5205C62.6215 49.8857 59.0263 47.294 55.0202 47.7318C51.0141 48.1696 48.1142 51.4711 48.543 55.106Z" fill="#AF8C70"/>
<path d="M51.3665 49.6476C51.1476 49.4891 50.8383 49.5223 50.661 49.7233L45.2044 55.9101C44.4798 56.7315 44.6176 57.9224 45.5121 58.57L53.5295 64.374C54.424 65.0215 55.7365 64.8806 56.461 64.0591L61.8781 57.9171C62.0708 57.6987 62.0326 57.3691 61.7947 57.1969L51.3665 49.6476Z" fill="#AF8C70"/>
</g>
<path d="M24.1052 59.2555L25.6779 61.0386L23.1658 71.0311L23.1596 71.0556L23.1554 71.0806C22.7231 73.6172 22.9951 75.8216 23.8293 77.6967C24.6624 79.5692 26.0377 81.0718 27.7478 82.238C31.1523 84.5597 35.9256 85.5806 40.6542 85.5806H45.7617C50.4905 85.5806 55.1754 84.5362 58.4154 82.1924C60.0444 81.014 61.3169 79.4997 62.0261 77.6225C62.7338 75.7494 62.863 73.5619 62.2845 71.0623L60.5076 60.4588L61.569 59.2555C61.8416 58.989 62.0929 58.7042 62.3202 58.4037L62.3682 58.3493C62.4343 58.2744 62.4886 58.1938 62.5315 58.1096C63.4459 56.7692 63.9003 55.1488 63.6992 53.444C63.2217 49.3963 59.2524 46.612 54.9492 47.0823C52.4799 47.3522 50.3652 48.6434 49.1007 50.4603C48.094 50.444 47.0211 50.444 45.8861 50.4441L45.7617 50.4441H40.6542L40.5299 50.4441C39.1155 50.444 37.7977 50.444 36.5839 50.4755C35.3207 48.6506 33.2011 47.3529 30.7249 47.0823C26.4217 46.612 22.4524 49.3963 21.9749 53.444C21.7738 55.1488 22.2282 56.7692 23.1426 58.1096C23.1855 58.1938 23.2399 58.2744 23.306 58.3493L23.3539 58.4037C23.5813 58.7042 23.8325 58.989 24.1052 59.2555Z" stroke="#6B4A44" stroke-width="1.30679"/>
<g filter="url(#filter4_i_187_15)">
<path d="M33.6096 52.8379C33.6096 52.8379 29.5736 58.1928 27.728 58.0371C25.8824 57.8813 25.1716 55.457 25.3204 53.8157C25.4693 52.1744 26.5541 50.4051 28.3997 50.5609C30.2453 50.7166 33.7585 51.1966 33.6096 52.8379Z" fill="#D6BFB1"/>
<path d="M52.3034 52.8379C52.3034 52.8379 56.3395 58.1928 58.185 58.0371C60.0306 57.8813 60.7415 55.457 60.5926 53.8157C60.4437 52.1744 59.3589 50.4051 57.5133 50.5609C55.6677 50.7166 52.1545 51.1966 52.3034 52.8379Z" fill="#D6BFB1"/>
</g>
<path d="M40.3538 64.3589C40.3538 66.5378 38.5009 68.3042 36.2151 68.3042C33.9294 68.3042 32.0764 66.5378 32.0764 64.3589C32.0764 62.1799 33.9294 60.4136 36.2151 60.4136C38.5009 60.4136 40.3538 62.1799 40.3538 64.3589Z" fill="#6B4A44"/>
<path d="M39.7626 64.7711C39.7626 66.7223 38.1743 68.3042 36.2151 68.3042C34.2559 68.3042 32.6677 66.7223 32.6677 64.7711C32.6677 62.8198 34.2559 61.238 36.2151 61.238C38.1743 61.238 39.7626 62.8198 39.7626 64.7711Z" fill="#5A5353"/>
<path d="M39.7626 63.1223C39.7626 63.7727 39.2332 64.3 38.5801 64.3C37.927 64.3 37.3976 63.7727 37.3976 63.1223C37.3976 62.4719 37.927 61.9446 38.5801 61.9446C39.2332 61.9446 39.7626 62.4719 39.7626 63.1223Z" fill="#D9D9D9"/>
<path d="M53.5976 64.3589C53.5976 66.5378 51.7447 68.3042 49.4589 68.3042C47.1732 68.3042 45.3202 66.5378 45.3202 64.3589C45.3202 62.1799 47.1732 60.4136 49.4589 60.4136C51.7447 60.4136 53.5976 62.1799 53.5976 64.3589Z" fill="#6B4A44"/>
<path d="M53.0064 64.7711C53.0064 66.7223 51.4181 68.3042 49.4589 68.3042C47.4997 68.3042 45.9115 66.7223 45.9115 64.7711C45.9115 62.8198 47.4997 61.238 49.4589 61.238C51.4181 61.238 53.0064 62.8198 53.0064 64.7711Z" fill="#5A5353"/>
<path d="M53.0064 63.1223C53.0064 63.7727 52.477 64.3 51.8239 64.3C51.1708 64.3 50.6414 63.7727 50.6414 63.1223C50.6414 62.4719 51.1708 61.9446 51.8239 61.9446C52.477 61.9446 53.0064 62.4719 53.0064 63.1223Z" fill="#D9D9D9"/>
<g filter="url(#filter5_i_187_15)">
<rect x="32.9204" y="68.3042" width="20.0443" height="12.0989" rx="6.04945" fill="#D6BFB1"/>
</g>
<path d="M42.6158 77.3521C42.6158 77.5325 42.7621 77.6787 42.9425 77.6787C43.1229 77.6787 43.2692 77.5325 43.2692 77.3521H42.6158ZM43.2692 77.3521V71.0396H42.6158V77.3521H43.2692Z" fill="#F4DDD0"/>
<path d="M43.547 72.9056C43.2904 73.31 42.7003 73.31 42.4436 72.9056L41.0283 70.6753C40.7522 70.2403 41.0648 69.6718 41.58 69.6718H44.4106C44.9259 69.6718 45.2384 70.2403 44.9623 70.6753L43.547 72.9056Z" fill="#F4DDD0"/>
</g>
<defs>
<filter id="filter0_d_187_15" x="28.278" y="5.71533" width="98.2178" height="124.355" filterUnits="userSpaceOnUse" color-interpolation-filters="sRGB">
<feFlood flood-opacity="0" result="BackgroundImageFix"/>
<feColorMatrix in="SourceAlpha" type="matrix" values="0 0 0 0 0 0 0 0 0 0 0 0 0 0 0 0 0 0 127 0" result="hardAlpha"/>
<feOffset dy="4"/>
<feGaussianBlur stdDeviation="2"/>
<feComposite in2="hardAlpha" operator="out"/>
<feColorMatrix type="matrix" values="0 0 0 0 0 0 0 0 0 0 0 0 0 0 0 0 0 0 0.25 0"/>
<feBlend mode="normal" in2="BackgroundImageFix" result="effect1_dropShadow_187_15"/>
<feBlend mode="normal" in="SourceGraphic" in2="effect1_dropShadow_187_15" result="shape"/>
</filter>
<filter id="filter1_d_187_15" x="0.386417" y="63.6006" width="79.614" height="85.9069" filterUnits="userSpaceOnUse" color-interpolation-filters="sRGB">
<feFlood flood-opacity="0" result="BackgroundImageFix"/>
<feColorMatrix in="SourceAlpha" type="matrix" values="0 0 0 0 0 0 0 0 0 0 0 0 0 0 0 0 0 0 127 0" result="hardAlpha"/>
<feOffset dy="2.61358"/>
<feGaussianBlur stdDeviation="1.30679"/>
<feComposite in2="hardAlpha" operator="out"/>
<feColorMatrix type="matrix" values="0 0 0 0 0 0 0 0 0 0 0 0 0 0 0 0 0 0 0.1 0"/>
<feBlend mode="normal" in2="BackgroundImageFix" result="effect1_dropShadow_187_15"/>
<feBlend mode="normal" in="SourceGraphic" in2="effect1_dropShadow_187_15" result="shape"/>
</filter>
<filter id="filter2_d_187_15" x="11.274" y="40.3774" width="63.126" height="59.8564" filterUnits="userSpaceOnUse" color-interpolation-filters="sRGB">
<feFlood flood-opacity="0" result="BackgroundImageFix"/>
<feColorMatrix in="SourceAlpha" type="matrix" values="0 0 0 0 0 0 0 0 0 0 0 0 0 0 0 0 0 0 127 0" result="hardAlpha"/>
<feOffset dy="4"/>
<feGaussianBlur stdDeviation="5"/>
<feComposite in2="hardAlpha" operator="out"/>
<feColorMatrix type="matrix" values="0 0 0 0 0 0 0 0 0 0 0 0 0 0 0 0 0 0 0.15 0"/>
<feBlend mode="normal" in2="BackgroundImageFix" result="effect1_dropShadow_187_15"/>
<feBlend mode="normal" in="SourceGraphic" in2="effect1_dropShadow_187_15" result="shape"/>
</filter>
<filter id="filter3_i_187_15" x="21.274" y="46.3774" width="43.126" height="42.47" filterUnits="userSpaceOnUse" color-interpolation-filters="sRGB">
<feFlood flood-opacity="0" result="BackgroundImageFix"/>
<feBlend mode="normal" in="SourceGraphic" in2="BackgroundImageFix" result="shape"/>
<feColorMatrix in="SourceAlpha" type="matrix" values="0 0 0 0 0 0 0 0 0 0 0 0 0 0 0 0 0 0 127 0" result="hardAlpha"/>
<feOffset dy="2.61358"/>
<feGaussianBlur stdDeviation="3.26698"/>
<feComposite in2="hardAlpha" operator="arithmetic" k2="-1" k3="1"/>
<feColorMatrix type="matrix" values="0 0 0 0 0.956207 0 0 0 0 0.865161 0 0 0 0 0.816137 0 0 0 0.24 0"/>
<feBlend mode="normal" in2="shape" result="effect1_innerShadow_187_15"/>
</filter>
<filter id="filter4_i_187_15" x="25.3013" y="50.5513" width="35.3105" height="10.1028" filterUnits="userSpaceOnUse" color-interpolation-filters="sRGB">
<feFlood flood-opacity="0" result="BackgroundImageFix"/>
<feBlend mode="normal" in="SourceGraphic" in2="BackgroundImageFix" result="shape"/>
<feColorMatrix in="SourceAlpha" type="matrix" values="0 0 0 0 0 0 0 0 0 0 0 0 0 0 0 0 0 0 127 0" result="hardAlpha"/>
<feOffset dy="2.61358"/>
<feGaussianBlur stdDeviation="1.30679"/>
<feComposite in2="hardAlpha" operator="arithmetic" k2="-1" k3="1"/>
<feColorMatrix type="matrix" values="0 0 0 0 0.686275 0 0 0 0 0.54902 0 0 0 0 0.439216 0 0 0 0.48 0"/>
<feBlend mode="normal" in2="shape" result="effect1_innerShadow_187_15"/>
</filter>
<filter id="filter5_i_187_15" x="32.9204" y="68.3042" width="20.0443" height="14.7127" filterUnits="userSpaceOnUse" color-interpolation-filters="sRGB">
<feFlood flood-opacity="0" result="BackgroundImageFix"/>
<feBlend mode="normal" in="SourceGraphic" in2="BackgroundImageFix" result="shape"/>
<feColorMatrix in="SourceAlpha" type="matrix" values="0 0 0 0 0 0 0 0 0 0 0 0 0 0 0 0 0 0 127 0" result="hardAlpha"/>
<feOffset dy="2.61358"/>
<feGaussianBlur stdDeviation="1.30679"/>
<feComposite in2="hardAlpha" operator="arithmetic" k2="-1" k3="1"/>
<feColorMatrix type="matrix" values="0 0 0 0 0.956207 0 0 0 0 0.865161 0 0 0 0 0.816137 0 0 0 0.08 0"/>
<feBlend mode="normal" in2="shape" result="effect1_innerShadow_187_15"/>
</filter>
</defs>
</svg>
