<svg width="1980" height="840" viewBox="0 0 1980 840" fill="none" xmlns="http://www.w3.org/2000/svg">
<g clip-path="url(#clip0_90_38)">
<rect width="1980" height="840" fill="#F5F5F5"/>
<path fill-rule="evenodd" clip-rule="evenodd" d="M-704.009 426.342L-663.218 392.499C-624.874 358.718 -543.291 291.032 -463.336 256.211C-383.382 221.391 -300.16 219.312 -220.615 168.089C-141.07 116.867 -80.3334 -48.9359 2.48897 31.0546C85.3114 111.045 180.765 378.115 261.948 392.499C343.132 406.883 434.967 233.773 514.922 198.952C594.877 164.131 682.195 326.069 763.379 340.453C844.562 354.837 924.507 221.545 1006.1 252.33C1087.69 283.116 1181.16 371.392 1263.98 451.383C1346.8 531.373 1378.29 408.077 1457.42 340.453C1536.56 272.828 1662.91 367.219 1740.82 250.39C1818.72 133.561 1898.67 0.268814 1980.26 31.0544C2061.86 61.8401 2149.99 256.581 2191.61 354.012L2235.68 451.383L2243.06 746.612L2201.45 747.651C2162.28 748.63 2079.06 750.708 1998.29 752.726C1917.51 754.744 1834.29 756.822 1753.52 758.84C1672.74 760.858 1589.52 762.936 1508.75 764.954C1427.98 766.972 1344.75 769.051 1263.98 771.068C1183.21 773.086 1099.98 775.165 1019.21 777.182C938.436 779.2 855.215 781.279 774.441 783.296C693.667 785.314 610.445 787.393 529.671 789.41C448.897 791.428 365.676 793.507 284.902 795.524C204.128 797.542 120.906 799.621 40.1322 801.638C-40.6417 803.656 -123.863 805.735 -204.637 807.753C-285.411 809.77 -368.633 811.849 -449.407 813.867C-530.181 815.884 -613.402 817.963 -652.566 818.941L-694.176 819.981L-704.009 426.342Z" fill="#F4DDD0"/>
<g filter="url(#filter0_d_90_38)">
<path d="M126.181 618.147C126.181 683.973 71.8312 737.335 4.78675 737.335C-62.2577 737.335 -116.608 683.973 -116.608 618.147C-116.608 552.322 -62.2577 498.96 4.78675 498.96C71.8312 498.96 126.181 552.322 126.181 618.147Z" fill="#C8CC92"/>
<path d="M368.971 618.147C368.971 683.973 314.621 737.335 247.576 737.335C180.532 737.335 126.181 683.973 126.181 618.147C126.181 552.322 180.532 498.96 247.576 498.96C314.621 498.96 368.971 552.322 368.971 618.147Z" fill="#C8CC92"/>
<path d="M611.76 618.147C611.76 683.973 557.41 737.335 490.365 737.335C423.321 737.335 368.971 683.973 368.971 618.147C368.971 552.322 423.321 498.96 490.365 498.96C557.41 498.96 611.76 552.322 611.76 618.147Z" fill="#C8CC92"/>
<path d="M854.549 618.147C854.549 683.973 800.199 737.335 733.155 737.335C666.11 737.335 611.76 683.973 611.76 618.147C611.76 552.322 666.11 498.96 733.155 498.96C800.199 498.96 854.549 552.322 854.549 618.147Z" fill="#C8CC92"/>
<path d="M1097.34 618.147C1097.34 683.973 1042.99 737.335 975.944 737.335C908.9 737.335 854.549 683.973 854.549 618.147C854.549 552.322 908.9 498.96 975.944 498.96C1042.99 498.96 1097.34 552.322 1097.34 618.147Z" fill="#C8CC92"/>
<path d="M1340.13 618.147C1340.13 683.973 1285.78 737.335 1218.73 737.335C1151.69 737.335 1097.34 683.973 1097.34 618.147C1097.34 552.322 1151.69 498.96 1218.73 498.96C1285.78 498.96 1340.13 552.322 1340.13 618.147Z" fill="#C8CC92"/>
<path d="M1582.92 618.147C1582.92 683.973 1528.57 737.335 1461.52 737.335C1394.48 737.335 1340.13 683.973 1340.13 618.147C1340.13 552.322 1394.48 498.96 1461.52 498.96C1528.57 498.96 1582.92 552.322 1582.92 618.147Z" fill="#C8CC92"/>
<path d="M1825.71 618.147C1825.71 683.973 1771.36 737.335 1704.31 737.335C1637.27 737.335 1582.92 683.973 1582.92 618.147C1582.92 552.322 1637.27 498.96 1704.31 498.96C1771.36 498.96 1825.71 552.322 1825.71 618.147Z" fill="#C8CC92"/>
<path d="M2068.5 618.147C2068.5 683.973 2014.15 737.335 1947.1 737.335C1880.06 737.335 1825.71 683.973 1825.71 618.147C1825.71 552.322 1880.06 498.96 1947.1 498.96C2014.15 498.96 2068.5 552.322 2068.5 618.147Z" fill="#C8CC92"/>
<path d="M1.25527 604.904H2068.5V1349.16H1.25527V604.904Z" fill="#C8CC92"/>
</g>
</g>
<defs>
<filter id="filter0_d_90_38" x="-116.608" y="498.96" width="2195.7" height="860.799" filterUnits="userSpaceOnUse" color-interpolation-filters="sRGB">
<feFlood flood-opacity="0" result="BackgroundImageFix"/>
<feColorMatrix in="SourceAlpha" type="matrix" values="0 0 0 0 0 0 0 0 0 0 0 0 0 0 0 0 0 0 127 0" result="hardAlpha"/>
<feOffset dx="5.29722" dy="5.29722"/>
<feGaussianBlur stdDeviation="2.64861"/>
<feComposite in2="hardAlpha" operator="out"/>
<feColorMatrix type="matrix" values="0 0 0 0 0.57913 0 0 0 0 0.591623 0 0 0 0 0.410464 0 0 0 1 0"/>
<feBlend mode="normal" in2="BackgroundImageFix" result="effect1_dropShadow_90_38"/>
<feBlend mode="normal" in="SourceGraphic" in2="effect1_dropShadow_90_38" result="shape"/>
</filter>
<clipPath id="clip0_90_38">
<rect width="1980" height="840" fill="white"/>
</clipPath>
</defs>
</svg>
