<svg width="1980" height="840" viewBox="0 0 1980 840" fill="none" xmlns="http://www.w3.org/2000/svg">
<g clip-path="url(#clip0_90_38)">
<rect width="1980" height="840" fill="#F5F5F5"/>
<g filter="url(#filter0_d_90_38)">
<path d="M126.181 618.147C126.181 683.973 71.8312 737.335 4.78675 737.335C-62.2577 737.335 -116.608 683.973 -116.608 618.147C-116.608 552.322 -62.2577 498.96 4.78675 498.96C71.8312 498.96 126.181 552.322 126.181 618.147Z" fill="#C8CC92"/>
<path d="M368.971 618.147C368.971 683.973 314.621 737.335 247.576 737.335C180.532 737.335 126.181 683.973 126.181 618.147C126.181 552.322 180.532 498.96 247.576 498.96C314.621 498.96 368.971 552.322 368.971 618.147Z" fill="#C8CC92"/>
<path d="M611.76 618.147C611.76 683.973 557.41 737.335 490.365 737.335C423.321 737.335 368.971 683.973 368.971 618.147C368.971 552.322 423.321 498.96 490.365 498.96C557.41 498.96 611.76 552.322 611.76 618.147Z" fill="#C8CC92"/>
<path d="M854.549 618.147C854.549 683.973 800.199 737.335 733.155 737.335C666.11 737.335 611.76 683.973 611.76 618.147C611.76 552.322 666.11 498.96 733.155 498.96C800.199 498.96 854.549 552.322 854.549 618.147Z" fill="#C8CC92"/>
<path d="M1097.34 618.147C1097.34 683.973 1042.99 737.335 975.944 737.335C908.9 737.335 854.549 683.973 854.549 618.147C854.549 552.322 908.9 498.96 975.944 498.96C1042.99 498.96 1097.34 552.322 1097.34 618.147Z" fill="#C8CC92"/>
<path d="M1340.13 618.147C1340.13 683.973 1285.78 737.335 1218.73 737.335C1151.69 737.335 1097.34 683.973 1097.34 618.147C1097.34 552.322 1151.69 498.96 1218.73 498.96C1285.78 498.96 1340.13 552.322 1340.13 618.147Z" fill="#C8CC92"/>
<path d="M1582.92 618.147C1582.92 683.973 1528.57 737.335 1461.52 737.335C1394.48 737.335 1340.13 683.973 1340.13 618.147C1340.13 552.322 1394.48 498.96 1461.52 498.96C1528.57 498.96 1582.92 552.322 1582.92 618.147Z" fill="#C8CC92"/>
<path d="M1825.71 618.147C1825.71 683.973 1771.36 737.335 1704.31 737.335C1637.27 737.335 1582.92 683.973 1582.92 618.147C1582.92 552.322 1637.27 498.96 1704.31 498.96C1771.36 498.96 1825.71 552.322 1825.71 618.147Z" fill="#C8CC92"/>
<path d="M2068.5 618.147C2068.5 683.973 2014.15 737.335 1947.1 737.335C1880.06 737.335 1825.71 683.973 1825.71 618.147C1825.71 552.322 1880.06 498.96 1947.1 498.96C2014.15 498.96 2068.5 552.322 2068.5 618.147Z" fill="#C8CC92"/>
<path d="M1.25527 604.904H2068.5V1349.16H1.25527V604.904Z" fill="#C8CC92"/>
</g>
</g>
<defs>
<filter id="filter0_d_90_38" x="-116.608" y="498.96" width="2195.7" height="860.799" filterUnits="userSpaceOnUse" color-interpolation-filters="sRGB">
<feFlood flood-opacity="0" result="BackgroundImageFix"/>
<feColorMatrix in="SourceAlpha" type="matrix" values="0 0 0 0 0 0 0 0 0 0 0 0 0 0 0 0 0 0 127 0" result="hardAlpha"/>
<feOffset dx="5.29722" dy="5.29722"/>
<feGaussianBlur stdDeviation="2.64861"/>
<feComposite in2="hardAlpha" operator="out"/>
<feColorMatrix type="matrix" values="0 0 0 0 0.57913 0 0 0 0 0.591623 0 0 0 0 0.410464 0 0 0 1 0"/>
<feBlend mode="normal" in2="BackgroundImageFix" result="effect1_dropShadow_90_38"/>
<feBlend mode="normal" in="SourceGraphic" in2="effect1_dropShadow_90_38" result="shape"/>
</filter>
<clipPath id="clip0_90_38">
<rect width="1980" height="840" fill="white"/>
</clipPath>
</defs>
</svg>
