<svg width="1980" height="840" viewBox="0 0 1980 840" fill="none" xmlns="http://www.w3.org/2000/svg">
<g clip-path="url(#clip0_142_143)">
<rect width="1980" height="840" fill="#F5F5F5"/>
<path fill-rule="evenodd" clip-rule="evenodd" d="M-720.162 442.798L-678.096 410.71C-638.554 378.68 -554.421 314.505 -471.968 281.489C-389.515 248.474 -303.693 246.503 -221.662 197.936C-139.631 149.37 -76.9964 -7.83548 8.4142 68.0074C93.8248 143.85 192.261 397.072 275.982 410.71C359.702 424.348 454.408 260.214 536.861 227.199C619.314 194.184 709.361 347.724 793.082 361.362C876.802 375.001 959.245 248.62 1043.39 277.809C1127.53 306.999 1223.92 390.698 1309.33 466.541C1394.74 542.384 1427.2 425.48 1508.81 361.362C1590.42 297.245 1720.73 386.741 1801.07 275.97C1881.41 165.198 1963.85 38.8179 2047.99 68.0072C2132.14 97.1965 2223.03 281.84 2265.95 374.219L2311.4 466.541L2319 746.462L2276.09 747.447C2235.7 748.375 2149.88 750.346 2066.58 752.259C1983.28 754.172 1897.46 756.143 1814.16 758.056C1730.87 759.969 1645.04 761.94 1561.74 763.853C1478.45 765.766 1392.62 767.737 1309.33 769.65C1226.03 771.563 1140.21 773.534 1056.91 775.447C973.61 777.36 887.787 779.331 804.489 781.244C721.191 783.157 635.369 785.128 552.071 787.041C468.773 788.954 382.95 790.925 299.652 792.838C216.354 794.751 130.532 796.722 47.2338 798.635C-36.0643 800.548 -121.887 802.519 -205.185 804.432C-288.483 806.345 -374.305 808.316 -457.603 810.229C-540.901 812.142 -626.724 814.113 -667.111 815.041L-710.022 816.026L-720.162 442.798Z" fill="#F4DDD0"/>
<g filter="url(#filter0_d_142_143)">
<path d="M164.438 742.147C164.438 807.973 108.389 861.335 39.2493 861.335C-29.8903 861.335 -85.939 807.973 -85.939 742.147C-85.939 676.322 -29.8903 622.96 39.2493 622.96C108.389 622.96 164.438 676.322 164.438 742.147Z" fill="#C8CC92"/>
<path d="M414.814 742.147C414.814 807.973 358.765 861.335 289.626 861.335C220.486 861.335 164.438 807.973 164.438 742.147C164.438 676.322 220.486 622.96 289.626 622.96C358.765 622.96 414.814 676.322 414.814 742.147Z" fill="#C8CC92"/>
<path d="M665.191 742.147C665.191 807.973 609.142 861.335 540.002 861.335C470.863 861.335 414.814 807.973 414.814 742.147C414.814 676.322 470.863 622.96 540.002 622.96C609.142 622.96 665.191 676.322 665.191 742.147Z" fill="#C8CC92"/>
<path d="M915.567 742.147C915.567 807.973 859.518 861.335 790.379 861.335C721.239 861.335 665.191 807.973 665.191 742.147C665.191 676.322 721.239 622.96 790.379 622.96C859.518 622.96 915.567 676.322 915.567 742.147Z" fill="#C8CC92"/>
<path d="M1165.94 742.147C1165.94 807.973 1109.89 861.335 1040.76 861.335C971.616 861.335 915.567 807.973 915.567 742.147C915.567 676.322 971.616 622.96 1040.76 622.96C1109.89 622.96 1165.94 676.322 1165.94 742.147Z" fill="#C8CC92"/>
<path d="M1416.32 742.147C1416.32 807.973 1360.27 861.335 1291.13 861.335C1221.99 861.335 1165.94 807.973 1165.94 742.147C1165.94 676.322 1221.99 622.96 1291.13 622.96C1360.27 622.96 1416.32 676.322 1416.32 742.147Z" fill="#C8CC92"/>
<path d="M1666.7 742.147C1666.7 807.973 1610.65 861.335 1541.51 861.335C1472.37 861.335 1416.32 807.973 1416.32 742.147C1416.32 676.322 1472.37 622.96 1541.51 622.96C1610.65 622.96 1666.7 676.322 1666.7 742.147Z" fill="#C8CC92"/>
<path d="M1917.07 742.147C1917.07 807.973 1861.02 861.335 1791.88 861.335C1722.75 861.335 1666.7 807.973 1666.7 742.147C1666.7 676.322 1722.75 622.96 1791.88 622.96C1861.02 622.96 1917.07 676.322 1917.07 742.147Z" fill="#C8CC92"/>
<path d="M2167.45 742.147C2167.45 807.973 2111.4 861.335 2042.26 861.335C1973.12 861.335 1917.07 807.973 1917.07 742.147C1917.07 676.322 1973.12 622.96 2042.26 622.96C2111.4 622.96 2167.45 676.322 2167.45 742.147Z" fill="#C8CC92"/>
<path d="M35.6075 728.904H2167.45V1473.16H35.6075V728.904Z" fill="#C8CC92"/>
</g>
<g filter="url(#filter1_d_142_143)">
<ellipse cx="403" cy="915.728" rx="225" ry="191.413" fill="#AF8C70"/>
<path d="M626.571 915.728C626.571 1020.44 526.701 1105.71 403 1105.71C279.3 1105.71 179.43 1020.44 179.43 915.728C179.43 811.011 279.3 725.745 403 725.745C526.701 725.745 626.571 811.011 626.571 915.728Z" stroke="#6B4A44" stroke-width="2.85869"/>
</g>
<g filter="url(#filter2_i_142_143)">
<path d="M266.92 569.715C266.92 497.621 305.987 497.9 384.573 497.9H427.691C506.277 497.9 545.344 497.621 545.344 569.715L561.768 667.994C580.658 749.358 506.277 784.281 427.691 784.281H384.573C305.987 784.281 228.318 750.151 242.281 667.994L266.92 569.715Z" fill="#AF8C70"/>
<path d="M354.83 531.833C351.209 562.603 320.858 584.543 287.038 580.837C253.217 577.131 228.735 549.182 232.355 518.412C235.976 487.642 266.327 465.702 300.147 469.408C333.968 473.114 358.45 501.063 354.83 531.833Z" fill="#AF8C70"/>
<path d="M330.993 485.626C332.841 484.284 335.452 484.565 336.949 486.267L383.015 538.64C389.132 545.594 387.968 555.676 380.417 561.158L312.733 610.291C305.181 615.772 294.1 614.579 287.984 607.625L242.251 555.631C240.624 553.781 240.947 550.992 242.955 549.534L330.993 485.626Z" fill="#AF8C70"/>
<path d="M451.171 531.833C454.791 562.603 485.143 584.543 518.963 580.837C552.783 577.131 577.266 549.182 573.646 518.412C570.025 487.642 539.674 465.702 505.854 469.408C472.033 473.114 447.551 501.063 451.171 531.833Z" fill="#AF8C70"/>
<path d="M475.008 485.626C473.16 484.284 470.549 484.565 469.052 486.267L422.986 538.64C416.869 545.594 418.033 555.676 425.584 561.158L493.268 610.291C500.82 615.772 511.9 614.579 518.017 607.625L563.75 555.631C565.377 553.781 565.054 550.992 563.045 549.534L475.008 485.626Z" fill="#AF8C70"/>
</g>
<path d="M240.985 667.669L240.972 667.719L240.964 667.77C237.435 688.534 239.685 706.343 246.351 721.366C253.015 736.384 264.052 748.534 277.967 758.049C305.764 777.058 345.127 785.617 384.573 785.617H427.691C467.137 785.617 505.696 776.86 532.068 757.731C545.272 748.153 555.438 735.96 561.089 720.96C566.738 705.969 567.841 688.271 563.079 667.732L547.727 575.87L558.07 564.111C560.304 561.933 562.354 559.602 564.201 557.14L564.753 556.513C565.133 556.081 565.432 555.611 565.652 555.118C572.946 544.484 576.548 531.649 574.972 518.256C571.253 486.644 540.139 464.307 505.708 468.08C485.194 470.328 467.977 481.355 458.194 496.589L458.061 496.74C448.95 496.563 439.137 496.564 428.631 496.564L427.691 496.564H384.573L383.633 496.564C370.729 496.564 358.87 496.563 348.073 496.891L347.807 496.589C338.024 481.355 320.807 470.328 300.293 468.08C265.861 464.307 234.748 486.644 231.029 518.256C229.453 531.649 233.055 544.484 240.348 555.118C240.569 555.611 240.868 556.081 241.248 556.513L241.799 557.14C243.646 559.602 245.697 561.933 247.931 564.111L262.729 580.936L240.985 667.669Z" stroke="#6B4A44" stroke-width="2.67187"/>
<g filter="url(#filter3_i_142_143)">
<path d="M325.1 512.633C325.1 512.633 291.027 557.964 275.446 556.646C259.865 555.327 253.864 534.804 255.121 520.91C256.378 507.015 265.536 492.038 281.117 493.357C296.698 494.675 326.357 498.739 325.1 512.633Z" fill="#D6BFB1"/>
<path d="M482.918 512.633C482.918 512.633 516.991 557.964 532.572 556.646C548.153 555.327 554.154 534.804 552.897 520.91C551.64 507.015 542.482 492.038 526.901 493.357C511.32 494.675 481.661 498.739 482.918 512.633Z" fill="#D6BFB1"/>
</g>
<path d="M382.037 610.164C382.037 628.609 366.393 643.562 347.097 643.562C327.8 643.562 312.157 628.609 312.157 610.164C312.157 591.719 327.8 576.766 347.097 576.766C366.393 576.766 382.037 591.719 382.037 610.164Z" fill="#6B4A44"/>
<path d="M377.045 613.653C377.045 630.172 363.637 643.562 347.097 643.562C330.557 643.562 317.148 630.172 317.148 613.653C317.148 597.135 330.557 583.744 347.097 583.744C363.637 583.744 377.045 597.135 377.045 613.653Z" fill="#5A5353"/>
<path d="M377.045 599.696C377.045 605.202 372.576 609.666 367.062 609.666C361.549 609.666 357.079 605.202 357.079 599.696C357.079 594.19 361.549 589.726 367.062 589.726C372.576 589.726 377.045 594.19 377.045 599.696Z" fill="#D9D9D9"/>
<path d="M493.844 610.164C493.844 628.609 478.201 643.562 458.904 643.562C439.608 643.562 423.964 628.609 423.964 610.164C423.964 591.719 439.608 576.766 458.904 576.766C478.201 576.766 493.844 591.719 493.844 610.164Z" fill="#6B4A44"/>
<path d="M488.853 613.653C488.853 630.172 475.444 643.562 458.904 643.562C442.364 643.562 428.956 630.172 428.956 613.653C428.956 597.135 442.364 583.744 458.904 583.744C475.444 583.744 488.853 597.135 488.853 613.653Z" fill="#5A5353"/>
<path d="M488.853 599.696C488.853 605.202 484.383 609.666 478.87 609.666C473.357 609.666 468.887 605.202 468.887 599.696C468.887 594.19 473.357 589.726 478.87 589.726C484.383 589.726 488.853 594.19 488.853 599.696Z" fill="#D9D9D9"/>
<g filter="url(#filter4_i_142_143)">
<rect x="319.282" y="643.562" width="169.219" height="102.422" rx="51.2109" fill="#D6BFB1"/>
</g>
<path d="M347.167 698.739C345.441 698.938 344.136 700.507 344.43 702.213C345.67 709.402 349.227 715.903 354.564 720.617C360.661 726.005 368.603 728.636 376.704 727.953C384.804 727.27 392.426 723.327 397.952 716.96C402.791 711.385 405.69 704.335 406.221 696.992C406.346 695.256 404.908 693.926 403.183 694.018V694.018C401.447 694.111 400.084 695.609 399.915 697.354C399.371 702.983 397.086 708.363 393.364 712.651C388.949 717.738 382.859 720.888 376.387 721.434C369.914 721.979 363.569 719.877 358.696 715.573C354.586 711.941 351.797 706.984 350.714 701.486C350.38 699.79 348.892 698.54 347.167 698.739V698.739Z" fill="#F4DDD0"/>
<path d="M460.976 698.739C462.702 698.938 464.007 700.507 463.713 702.213C462.473 709.402 458.916 715.903 453.58 720.617C447.482 726.005 439.54 728.636 431.439 727.953C423.339 727.27 415.717 723.327 410.191 716.96C405.352 711.385 402.453 704.335 401.922 696.992C401.797 695.256 403.235 693.926 404.96 694.018V694.018C406.696 694.111 408.059 695.609 408.228 697.354C408.772 702.983 411.057 708.363 414.779 712.651C419.194 717.738 425.284 720.888 431.757 721.434C438.229 721.979 444.574 719.877 449.447 715.573C453.557 711.941 456.346 706.984 457.429 701.486C457.763 699.79 459.251 698.54 460.976 698.739V698.739Z" fill="#F4DDD0"/>
<path d="M399.883 702.344C399.883 704.557 401.678 706.352 403.891 706.352C406.105 706.352 407.899 704.557 407.899 702.344H399.883ZM407.899 702.344V666.719H399.883V702.344H407.899Z" fill="#F4DDD0"/>
<path d="M410.357 680.362C407.56 684.781 401.113 684.781 398.316 680.362L389.275 666.076C386.272 661.332 389.681 655.141 395.295 655.141H413.377C418.992 655.141 422.4 661.332 419.398 666.076L410.357 680.362Z" fill="#F4DDD0"/>
</g>
<defs>
<filter id="filter0_d_142_143" x="-85.939" y="622.96" width="2263.98" height="860.799" filterUnits="userSpaceOnUse" color-interpolation-filters="sRGB">
<feFlood flood-opacity="0" result="BackgroundImageFix"/>
<feColorMatrix in="SourceAlpha" type="matrix" values="0 0 0 0 0 0 0 0 0 0 0 0 0 0 0 0 0 0 127 0" result="hardAlpha"/>
<feOffset dx="5.29722" dy="5.29722"/>
<feGaussianBlur stdDeviation="2.64861"/>
<feComposite in2="hardAlpha" operator="out"/>
<feColorMatrix type="matrix" values="0 0 0 0 0.57913 0 0 0 0 0.591623 0 0 0 0 0.410464 0 0 0 1 0"/>
<feBlend mode="normal" in2="BackgroundImageFix" result="effect1_dropShadow_142_143"/>
<feBlend mode="normal" in="SourceGraphic" in2="effect1_dropShadow_142_143" result="shape"/>
</filter>
<filter id="filter1_d_142_143" x="170.377" y="720.504" width="465.246" height="398.071" filterUnits="userSpaceOnUse" color-interpolation-filters="sRGB">
<feFlood flood-opacity="0" result="BackgroundImageFix"/>
<feColorMatrix in="SourceAlpha" type="matrix" values="0 0 0 0 0 0 0 0 0 0 0 0 0 0 0 0 0 0 127 0" result="hardAlpha"/>
<feMorphology radius="3.81158" operator="dilate" in="SourceAlpha" result="effect1_dropShadow_142_143"/>
<feOffset dy="3.81158"/>
<feGaussianBlur stdDeviation="1.90579"/>
<feComposite in2="hardAlpha" operator="out"/>
<feColorMatrix type="matrix" values="0 0 0 0 0.421484 0 0 0 0 0.288685 0 0 0 0 0.26608 0 0 0 1 0"/>
<feBlend mode="normal" in2="BackgroundImageFix" result="effect1_dropShadow_142_143"/>
<feBlend mode="normal" in="SourceGraphic" in2="effect1_dropShadow_142_143" result="shape"/>
</filter>
<filter id="filter2_i_142_143" x="229.327" y="466.33" width="347.348" height="324.186" filterUnits="userSpaceOnUse" color-interpolation-filters="sRGB">
<feFlood flood-opacity="0" result="BackgroundImageFix"/>
<feBlend mode="normal" in="SourceGraphic" in2="BackgroundImageFix" result="shape"/>
<feColorMatrix in="SourceAlpha" type="matrix" values="0 0 0 0 0 0 0 0 0 0 0 0 0 0 0 0 0 0 127 0" result="hardAlpha"/>
<feOffset dy="3.5625"/>
<feGaussianBlur stdDeviation="4.45312"/>
<feComposite in2="hardAlpha" operator="arithmetic" k2="-1" k3="1"/>
<feColorMatrix type="matrix" values="0 0 0 0 0.956207 0 0 0 0 0.865161 0 0 0 0 0.816137 0 0 0 0.24 0"/>
<feBlend mode="normal" in2="shape" result="effect1_innerShadow_142_143"/>
</filter>
<filter id="filter3_i_142_143" x="254.959" y="493.275" width="298.1" height="66.9609" filterUnits="userSpaceOnUse" color-interpolation-filters="sRGB">
<feFlood flood-opacity="0" result="BackgroundImageFix"/>
<feBlend mode="normal" in="SourceGraphic" in2="BackgroundImageFix" result="shape"/>
<feColorMatrix in="SourceAlpha" type="matrix" values="0 0 0 0 0 0 0 0 0 0 0 0 0 0 0 0 0 0 127 0" result="hardAlpha"/>
<feOffset dy="3.5625"/>
<feGaussianBlur stdDeviation="1.78125"/>
<feComposite in2="hardAlpha" operator="arithmetic" k2="-1" k3="1"/>
<feColorMatrix type="matrix" values="0 0 0 0 0.686275 0 0 0 0 0.54902 0 0 0 0 0.439216 0 0 0 0.48 0"/>
<feBlend mode="normal" in2="shape" result="effect1_innerShadow_142_143"/>
</filter>
<filter id="filter4_i_142_143" x="319.282" y="643.562" width="169.219" height="105.984" filterUnits="userSpaceOnUse" color-interpolation-filters="sRGB">
<feFlood flood-opacity="0" result="BackgroundImageFix"/>
<feBlend mode="normal" in="SourceGraphic" in2="BackgroundImageFix" result="shape"/>
<feColorMatrix in="SourceAlpha" type="matrix" values="0 0 0 0 0 0 0 0 0 0 0 0 0 0 0 0 0 0 127 0" result="hardAlpha"/>
<feOffset dy="3.5625"/>
<feGaussianBlur stdDeviation="1.78125"/>
<feComposite in2="hardAlpha" operator="arithmetic" k2="-1" k3="1"/>
<feColorMatrix type="matrix" values="0 0 0 0 0.956207 0 0 0 0 0.865161 0 0 0 0 0.816137 0 0 0 0.08 0"/>
<feBlend mode="normal" in2="shape" result="effect1_innerShadow_142_143"/>
</filter>
<clipPath id="clip0_142_143">
<rect width="1980" height="840" fill="white"/>
</clipPath>
</defs>
</svg>
